<svg width="22" height="22" viewBox="0 0 22 22" fill="none" xmlns="http://www.w3.org/2000/svg" xmlns:xlink="http://www.w3.org/1999/xlink">
	<desc>
			Created with Pixso.
	</desc>
	<defs/>
	<path id="Ellipse 27" d="M20.54 3.57C18.81 1.81 16.63 0.68 14.33 0.23C11.41 -0.35 8.52 0.18 6.12 1.54C3.52 2.99 1.68 5.28 0.73 7.87C-0.3 10.67 -0.21 13.6 0.76 16.19C1.79 18.98 3.76 21.15 6.18 22.49C8.78 23.93 11.69 24.3 14.4 23.75C16.85 23.25 18.97 22.04 20.59 20.37C21.1 19.85 20.99 19 20.41 18.55C19.83 18.1 19 18.21 18.47 18.72C17.17 19.98 15.56 20.79 13.86 21.14C11.6 21.6 9.35 21.2 7.47 20.16C5.45 19.04 4 17.27 3.25 15.26C2.44 13.09 2.49 10.81 3.23 8.79C4.03 6.61 5.55 4.91 7.42 3.86C9.44 2.72 11.7 2.42 13.81 2.84C15.61 3.2 17.19 4.05 18.43 5.23C18.96 5.74 19.8 5.85 20.37 5.39C20.95 4.94 21.06 4.09 20.54 3.57Z" fill="#f1f5ed" fillOpacity="1.000000" fillRule="evenodd"/>
	<path id="Subtract" d="M16.8799 12.3408C16.7969 13.5334 16.291 14.5969 15.5195 15.3953C14.6895 16.2561 13.6182 16.7458 12.5146 16.8613C11.3252 16.9875 10.1904 16.6743 9.27051 16.053C8.27832 15.3855 7.61035 14.4158 7.30469 13.3484C6.97363 12.1995 7.08496 11.0271 7.53711 10.0132C8.02246 8.92017 8.86133 8.09375 9.85938 7.60767C10.9336 7.08228 12.1074 6.98853 13.1846 7.25757C14.3447 7.54565 15.3047 8.22827 15.957 9.12695C16.6602 10.0935 16.957 11.2332 16.8799 12.3408ZM15.4219 11.0347C15.6582 11.8716 15.5732 12.7239 15.2422 13.4597C14.8857 14.2529 14.2725 14.8513 13.5449 15.2019C12.7627 15.5806 11.9082 15.645 11.126 15.4458C10.2832 15.2327 9.58691 14.7332 9.11621 14.0776C8.60742 13.3726 8.39551 12.5427 8.45508 11.7375C8.51855 10.8704 8.88965 10.0984 9.4541 9.52026C10.0596 8.89673 10.8398 8.54419 11.6436 8.46362C12.5088 8.37549 13.333 8.60693 14.001 9.06177C14.7197 9.55029 15.2031 10.2576 15.4219 11.0347ZM13.4062 11.6038C13.3096 11.2598 13.0967 10.9795 12.8223 10.7932C12.5273 10.5918 12.1836 10.5139 11.8535 10.5474C11.498 10.583 11.1855 10.7437 10.9541 10.9814C10.7051 11.2373 10.5684 11.5615 10.5439 11.8923C10.5176 12.2485 10.6211 12.5847 10.8154 12.8538C11.0234 13.1438 11.3193 13.3345 11.6416 13.4158C11.9873 13.5042 12.3359 13.46 12.6348 13.3157C12.957 13.1606 13.1963 12.9026 13.332 12.5999C13.4785 12.2744 13.4961 11.9229 13.4062 11.6038Z" clipRule="evenodd" fill="#f1f5ed" fillOpacity="1.000000" fillRule="evenodd"/>
	<path id="Ellipse 28" d="M17.74 6.43C16.59 5.26 15.13 4.51 13.6 4.21C11.65 3.82 9.73 4.18 8.13 5.08C6.4 6.05 5.17 7.57 4.54 9.3C3.85 11.16 3.91 13.12 4.55 14.85C5.24 16.7 6.56 18.15 8.17 19.05C9.9 20.01 11.84 20.26 13.65 19.89C15.28 19.56 16.69 18.75 17.78 17.64C18.12 17.28 18.04 16.72 17.66 16.42C17.27 16.12 16.72 16.19 16.36 16.53C15.49 17.37 14.42 17.92 13.29 18.15C11.78 18.46 10.28 18.19 9.03 17.49C7.68 16.75 6.72 15.57 6.22 14.22C5.68 12.78 5.71 11.26 6.2 9.91C6.73 8.46 7.75 7.33 9 6.63C10.34 5.87 11.85 5.67 13.25 5.95C14.46 6.18 15.51 6.75 16.34 7.54C16.69 7.88 17.25 7.95 17.63 7.65C18.02 7.34 18.09 6.78 17.74 6.43Z" fill="#f1f5ed" fillOpacity="1.000000" fillRule="evenodd"/>
</svg>
